<svg xmlns="http://www.w3.org/2000/svg" width="512" height="512" viewBox="0 0 48 48">
  <rect width="48" height="48" rx="10" fill="#fff8ef"/>
  <path fill="#863bff" d="M25.946 45.938c-.664.845-2.021.375-2.021-.698V34.937a2.26 2.26 0 0 0-2.262-2.262H10.287c-.92 0-1.456-1.04-.92-1.788l7.48-10.471c1.07-1.497 0-3.578-1.842-3.578H1.237c-.92 0-1.456-1.04-.92-1.788L10.013 1.474c.214-.297.556-.474.92-.474h28.894c.92 0 1.456 1.04.92 1.788l-7.48 10.471c-1.07 1.498 0 3.579 1.842 3.579h11.377c.943 0 1.473 1.088.89 1.83L25.947 45.94z"/>
  <path fill="#47bfff" fill-opacity=".85" d="M34 13.2c-1.07 1.5 0 3.58 1.84 3.58h10.3l-9.84 12.58c-3.46-.66-6.1-3.67-6.1-7.34 0-3.8 2.04-6.51 3.8-8.82z"/>
</svg>
